<?xml version="1.0" standalone="no"?> <!DOCTYPE svg PUBLIC "-//W3C//DTD SVG 1.0//EN" "http://www.w3.org/TR/2001/REC-SVG-20010904/DTD/svg10.dtd" > <svg xmlns="http://www.w3.org/2000/svg" width="100%" height="100%">
<defs >
<font id="OldSansBlack" horiz-adv-x="437" ><font-face
    font-family="OldSansBlack"
    units-per-em="1000"
    panose-1="2 0 6 3 4 0 0 2 0 4"
    ascent="976"
    descent="-200"
    alphabetic="0" />
<missing-glyph horiz-adv-x="1000" />
<glyph unicode=" " glyph-name="space" horiz-adv-x="305" />
<glyph unicode="!" glyph-name="exclam" horiz-adv-x="333" d="M224 233L252 733H80L108 233H224ZM86 -11H247V153H86V-11Z" />
<glyph unicode="&quot;" glyph-name="quotedbl" horiz-adv-x="333" d="M186 439V733H320V439H186ZM13 439V733H147V439H13Z" />
<glyph unicode="#" glyph-name="numbersign" horiz-adv-x="611" d="M466 410H561V522H481L509 733H392L364 522H290L318 733H201L173 522H80V410H158L144 312H50V200H129L101 -11H218L246 200H320L292 -11H409L437 200H531V312H452L466 410ZM275 410H349L335 312H261L275
410Z" />
<glyph unicode="$" glyph-name="dollar" horiz-adv-x="611" d="M498 42Q569 98 569 205Q569 302 494 355Q428 401 348 430V609Q383 601 411 578T464 531L558 623Q531 648 509 667T462 699T411 721T348 733V805H252V732Q212 727 174 712T105 671T57 611T38 530Q38
439 102 390Q153 351 252 312V114Q210 125 182 149T131 210L27 121Q72 61 125 30T252 -9V-131H348V-10Q443 -1 498 42ZM252 611V466Q240 471 226 478T201 494T181 515T173 542Q173 558 180 570T199 590T224 603T252 611ZM394 249Q435 226 435 190Q435 170 428 157T408
134T380 119T348 110V274Q377 260 394 249Z" />
<glyph unicode="%" glyph-name="percent" horiz-adv-x="889" d="M810 45Q867 100 867 179Q867 218 852 253T811 314T749 356T675 371Q636 371 602 356T541 316T499 256T483 182Q483 142 498 107T539 46T600 4T675 -11Q752 -11 810 45ZM288 -21L717 743H607L179
-21H288ZM350 407Q407 462 407 541Q407 580 392 615T351 676T289 718T215 733Q176 733 142 718T81 678T39 618T23 544Q23 504 38 469T79 408T140 366T215 350Q294 350 350 407ZM726 230Q747 209 747 180Q747 151 726 130T676 108Q647 108 626 128T604 178Q604 208
625 229T676 250Q704 250 726 230ZM266 592Q287 571 287 542Q287 513 266 491T216 469Q187 469 166 489T144 540Q144 570 165 591T216 613Q245 613 266 592Z" />
<glyph unicode="&amp;" glyph-name="ampersand" horiz-adv-x="667" d="M555 -10Q573 -15 594 -18T645 -21V116Q623 118 600 127T545 156Q574 199 595 244T634 340L503 375Q490 340 475 307T440 242Q417 263 390 294T331 367Q373 398 413 443Q465 500 465 571Q465
647 409 695Q355 743 282 743Q241 743 206 731T144 695T103 639T88 562Q88 536 92 514T103 472T120 433T145 392Q92 357 61 311T29 199Q29 108 88 43Q148 -21 271 -21Q328 -21 371 -3T456 51Q476 34 502 16T555 -10ZM313 622Q327 605 327 574Q327 559 320 545T302
517T279 492T255 472L252 477Q226 522 226 572Q226 603 242 622Q258 639 276 639Q298 639 313 622ZM315 182Q323 174 333 165T354 145Q317 117 273 117Q256 117 240 124T210 144T189 173T181 206Q181 235 192 251T224 284Q249 254 271 229T315 182Z" />
<glyph unicode="&apos;" glyph-name="quotesingle" horiz-adv-x="222" d="M44 439H178V733H44V439Z" />
<glyph unicode="(" glyph-name="parenleft" horiz-adv-x="333" d="M182 -95H334Q255 -4 214 99T173 324Q173 445 214 548T334 743H182Q159 714 137 673T89 578Q39 464 39 324Q39 184 89 70Q115 16 137 -25T182 -95Z" />
<glyph unicode=")" glyph-name="parenright" horiz-adv-x="333" d="M245 71Q294 181 294 324Q294 467 245 577Q220 632 198 673T153 743H1Q79 652 119 549T160 324Q160 203 120 100T1 -95H153Q176 -66 198 -25T245 71Z" />
<glyph unicode="*" glyph-name="asterisk" horiz-adv-x="500" d="M308 521L454 541L415 658L286 589L313 733H189L216 589L87 658L48 541L194 521L87 421L188 347L251 480L314 347L415 421L308 521Z" />
<glyph unicode="+" glyph-name="plus" horiz-adv-x="600" d="M363 198H570V326H363V531H235V326H29V198H235V-10H363V198Z" />
<glyph unicode="," glyph-name="comma" horiz-adv-x="305" d="M164 -161L232 -2V153H72V-11H128L77 -161H164Z" />
<glyph unicode="-" glyph-name="hyphen" horiz-adv-x="333" d="M33 195H300V325H33V195Z" />
<glyph unicode="." glyph-name="period" horiz-adv-x="305" d="M72 -11H232V153H72V-11Z" />
<glyph unicode="/" glyph-name="slash" horiz-adv-x="278" d="M89 -21L321 743H189L-43 -21H89Z" />
<glyph unicode="0" glyph-name="zero" horiz-adv-x="611" d="M511 82Q579 183 579 361Q579 428 567 496T524 619T440 708T305 743Q223 743 170 709T86 620T43 497T31 361Q31 293 43 225T86 103T170 14T305 -21Q442 -21 511 82ZM397 550Q427 485 427 361Q427 236
397 172Q369 109 305 109Q241 109 213 172Q183 236 183 361Q183 485 213 550Q241 613 305 613Q369 613 397 550Z" />
<glyph unicode="1" glyph-name="one" horiz-adv-x="611" d="M135 -11H510V111H397V743H282Q250 713 205 704T118 693V587H247V111H135V-11Z" />
<glyph unicode="2" glyph-name="two" horiz-adv-x="611" d="M509 378Q554 441 554 522Q554 576 534 617T481 686T402 728T306 743Q208 743 136 686Q100 657 78 619T46 527L183 496Q193 547 222 580T307 613Q349 613 375 591T401 525Q401 501 386 476T349 426T303
380T262 346Q222 314 188 284T122 227Q90 200 71 174T45 120V-11H553V123H230Q247 139 265 154T302 184Q356 228 412 275T509 378Z" />
<glyph unicode="3" glyph-name="three" horiz-adv-x="611" d="M478 41Q553 102 553 205Q553 268 525 317T437 391Q481 415 505 455T529 546Q529 636 459 690Q391 743 279 743Q208 743 150 712T45 629L147 536Q176 569 208 591T286 613Q303 613 319 608T348 594T369
570T377 536Q377 492 338 471Q297 448 202 448H183V318H207Q234 318 268 316T331 302T381 270T401 210Q401 162 368 136T289 109Q229 109 194 138Q174 154 162 169T140 204L17 135Q33 101 57 75T118 26Q192 -21 286 -21Q404 -21 478 41Z" />
<glyph unicode="4" glyph-name="four" horiz-adv-x="611" d="M485 155H586V277H485V733H326L13 297V155H338V-11H485V155ZM338 555V277H145L338 555Z" />
<glyph unicode="5" glyph-name="five" horiz-adv-x="611" d="M491 50Q565 120 565 246Q565 350 499 424Q431 499 336 499Q304 499 274 494T215 470L223 599H516V733H105L76 329L199 306Q216 336 240 352T300 369Q328 369 349 359T385 332T406 291T413 241Q413
214 406 190T385 148T349 120T298 110Q247 110 213 137Q194 152 184 165T169 197L40 130Q74 54 140 17T287 -21Q352 -21 403 -4T491 50Z" />
<glyph unicode="6" glyph-name="six" horiz-adv-x="611" d="M499 47Q574 116 574 224Q574 278 558 323T510 402T435 454T336 473Q298 473 261 463T193 429Q206 508 236 546Q286 612 359 613Q396 614 427 598T484 556L552 682Q508 711 461 727T361 743Q212 743
125 629Q38 517 38 320Q38 235 56 172T113 65Q190 -21 309 -21Q425 -21 499 47ZM393 312Q422 281 422 223Q422 174 396 142T318 109Q281 109 258 122T221 158T200 209T189 267Q208 302 237 322T308 343Q337 343 357 335T393 312Z" />
<glyph unicode="7" glyph-name="seven" horiz-adv-x="611" d="M263 -11L565 646V733H47V599H388L96 -11H263Z" />
<glyph unicode="8" glyph-name="eight" horiz-adv-x="611" d="M504 36Q583 95 583 189Q583 259 548 307T452 385Q501 414 528 453T556 552Q556 604 534 640T476 700T396 733T306 743Q260 743 215 734T133 702T75 642T53 551Q53 493 81 454T157 385Q95 353 61 306T26
187Q26 95 106 36Q185 -21 304 -21Q424 -21 504 36ZM380 603Q404 585 404 549Q404 519 369 485Q334 453 305 452T238 482Q206 511 206 551Q206 572 214 586T237 607T268 618T304 621Q330 621 348 616T380 603ZM378 274Q405 253 417 234T430 194Q430 167 419 149T391
121T351 106T305 101Q283 101 261 105T220 120T191 149T179 193Q179 234 219 273Q261 310 295 315Q309 314 329 305T378 274Z" />
<glyph unicode="9" glyph-name="nine" horiz-adv-x="611" d="M476 96Q561 211 561 403Q561 487 543 550T486 657Q409 743 290 743Q233 743 185 726T101 677T45 599T25 493Q25 441 42 397T89 319T163 268T260 249Q302 249 338 259T408 294Q402 260 390 228T358
169T309 127T240 109Q202 108 172 125T115 165L47 40Q92 11 139 -5T240 -21Q389 -21 476 96ZM379 561Q399 528 411 457Q395 422 365 401T294 379Q238 379 208 408T177 494Q177 546 202 579T283 613Q345 613 379 561Z" />
<glyph unicode=":" glyph-name="colon" horiz-adv-x="305" d="M72 -11H232V153H72V-11ZM62 289H222V453H62V289Z" />
<glyph unicode=";" glyph-name="semicolon" horiz-adv-x="305" d="M164 -161L232 -2V153H72V-11H128L77 -161H164ZM62 289H222V453H62V289Z" />
<glyph unicode="&lt;" glyph-name="less" horiz-adv-x="600" d="M29 207L570 -25V110L216 260L570 410V545L29 313V207Z" />
<glyph unicode="=" glyph-name="equal" horiz-adv-x="600" d="M29 306V434H572V306H29ZM29 86V214H572V86H29Z" />
<glyph unicode="&gt;" glyph-name="greater" horiz-adv-x="600" d="M29 -25L570 207V313L29 545V410L383 260L29 110V-25Z" />
<glyph unicode="?" glyph-name="question" horiz-adv-x="444" d="M387 490Q409 531 409 570Q409 639 359 691Q310 743 216 743Q128 743 73 699T-3 568L134 530Q138 556 144 572T162 599Q183 621 206 621Q225 621 242 610T260 577Q260 565 256 552T245 526T231
501T216 480Q201 460 186 439T159 396T140 349T132 299V232H264V280Q264 319 286 351T332 411Q349 430 362 449T387 490ZM119 -11H280V153H119V-11Z" />
<glyph unicode="@" glyph-name="at" horiz-adv-x="800" d="M680 218Q764 306 764 427Q764 556 666 649Q568 744 416 744Q257 744 145 629Q34 513 34 364Q34 210 142 95Q252 -21 423 -21L424 74Q375 74 325 97T234 160Q155 239 155 360Q155 478 232 560Q310 641
416 641Q520 641 587 577Q655 515 655 431Q655 354 627 299Q612 270 601 259T581 248Q580 248 578 250T571 254Q568 257 568 261Q568 264 571 272L628 545H515L510 521Q491 542 459 553T400 565Q300 565 243 487Q186 410 186 320Q186 236 240 184T353 132Q381 132
404 143T448 173Q454 155 468 143T503 130Q597 130 680 218ZM458 421Q476 401 476 373Q476 352 470 332T451 296T421 270T381 260Q346 260 332 283T317 338Q317 358 324 376T343 409T372 431T411 440Q440 440 458 421Z" />
<glyph unicode="A" glyph-name="A" horiz-adv-x="611" d="M452 -11H613L401 734H213L-2 -11H158L201 145H412L452 -11ZM309 545L377 281H237L309 545Z" />
<glyph unicode="B" glyph-name="B" horiz-adv-x="667" d="M545 40Q618 91 618 201Q618 266 594 311Q571 353 508 381Q554 404 578 445T602 537Q602 594 581 632T523 692T441 724T345 733H67V-11H338Q475 -11 545 40ZM419 578Q442 558 442 518Q442 499 435 486T415
463T387 450T354 445H227V599H350Q396 599 419 578ZM433 289Q458 267 458 219Q458 166 432 145T355 123H227V311H353Q406 311 433 289Z" />
<glyph unicode="C" glyph-name="C" horiz-adv-x="611" d="M495 29Q530 54 556 92T605 187L455 226Q444 202 432 182T405 148T370 125T320 117Q246 117 214 176Q179 237 179 356Q179 378 180 405T187 459T201 513T226 559T263 592T316 605Q368 605 396 575T440
499L586 534Q567 599 542 639T481 701Q412 743 321 743Q237 743 179 711T86 626T35 503T19 361Q19 287 34 219T85 97T178 11T320 -21Q426 -21 495 29Z" />
<glyph unicode="D" glyph-name="D" horiz-adv-x="667" d="M566 86Q611 134 632 202T653 360Q653 445 633 513T571 631T465 706T311 733H67V-11H313Q479 -11 566 86ZM447 537Q469 508 480 465T492 362Q492 314 484 272T456 197T400 146T309 127H227V595H311Q403
595 447 537Z" />
<glyph unicode="E" glyph-name="E" horiz-adv-x="611" d="M73 -11H584V127H232V308L480 309V445H232V595H572V733H73V-11Z" />
<glyph unicode="F" glyph-name="F" horiz-adv-x="556" d="M226 595H549V733H67V-11H226V308L468 309L467 445H226V595Z" />
<glyph unicode="G" glyph-name="G" horiz-adv-x="667" d="M494 -11H617V376H324V238H461Q456 189 423 156Q385 117 323 117Q278 117 250 141T206 201T185 278T179 354Q179 387 183 430T203 513T245 578T319 605Q377 605 406 579T459 501L607 540Q587 600 560 638T496
699Q423 743 339 743Q250 743 189 711T90 624T36 498T19 347Q19 275 35 209T88 91T181 10T319 -21Q373 -21 414 -6T494 47V-11Z" />
<glyph unicode="H" glyph-name="H" horiz-adv-x="722" d="M486 -11H647V733H486V446H234V733H73V-11H234V299H486V-11Z" />
<glyph unicode="I" glyph-name="I" horiz-adv-x="333" d="M86 -11H246V733H86V-11Z" />
<glyph unicode="J" glyph-name="J" horiz-adv-x="444" d="M316 33Q371 87 371 195V733H212V188Q212 177 210 165T203 142T189 124T166 117Q137 117 122 134T93 174L-20 90Q15 36 58 8T167 -20Q262 -20 316 33Z" />
<glyph unicode="K" glyph-name="K" horiz-adv-x="667" d="M489 -11H668L424 450L638 733H453L227 435V733H67V-11H227V212L315 323L489 -11Z" />
<glyph unicode="L" glyph-name="L" horiz-adv-x="556" d="M67 -11H540V127H226V733H67V-11Z" />
<glyph unicode="M" glyph-name="M" horiz-adv-x="833" d="M621 -11H763V733H548L415 255L283 733H70V-11H212V495L355 -11H476L621 496V-11Z" />
<glyph unicode="N" glyph-name="N" horiz-adv-x="722" d="M503 -11H652V733H500V267L231 733H70V-11H222V477L503 -11Z" />
<glyph unicode="O" glyph-name="O" horiz-adv-x="667" d="M568 81Q648 180 648 361Q648 438 632 507T578 629T481 712T334 743Q247 743 187 713T90 630T36 508T19 361Q19 284 35 215T89 93T187 10T334 -21Q487 -21 568 81ZM450 545Q488 483 488 361Q488 239 450
177Q414 117 334 117Q253 117 217 177Q179 239 179 361Q179 483 217 545Q253 605 334 605Q414 605 450 545Z" />
<glyph unicode="P" glyph-name="P" horiz-adv-x="611" d="M528 338Q599 396 599 506Q599 568 579 611T522 682T438 721T332 733H57V-11H217V281H331Q459 281 528 338ZM411 577Q424 567 431 550T438 504Q438 476 428 459T402 432T364 419T318 415H217V599H318Q383
599 411 577Z" />
<glyph unicode="Q" glyph-name="Q" horiz-adv-x="667" d="M499 -4Q525 -36 565 -50T666 -65V72Q631 75 611 81T580 96Q648 194 648 361Q648 438 632 507T578 629T481 712T334 743Q247 743 187 713T90 630T36 508T19 361Q19 284 35 215T89 93T187 10T334 -21Q430
-21 486 12Q491 6 499 -4ZM477 248Q451 283 414 303T322 328V184Q350 179 369 166T404 132Q381 117 334 117Q253 117 217 177Q179 239 179 361Q179 483 217 545Q253 605 334 605Q414 605 450 545Q488 483 488 361Q488 292 477 248Z" />
<glyph unicode="R" glyph-name="R" horiz-adv-x="667" d="M464 -11H642L480 316Q542 338 575 386T609 501Q609 558 592 601T543 674T466 718T366 733H67V-11H226V283H328L464 -11ZM421 576Q434 565 441 547T448 503Q448 474 437 457T408 431T367 420T321 417H226V599H337Q395
599 421 576Z" />
<glyph unicode="S" glyph-name="S" horiz-adv-x="611" d="M500 37Q570 97 570 206Q570 307 499 360Q432 412 347 441Q287 462 239 489Q216 502 207 516T197 545Q197 564 205 577T227 598T257 609T290 613Q340 613 367 587T413 517L560 562Q538 613 511 646T449
700Q379 743 291 743Q186 743 116 685T46 538Q46 448 106 397Q163 350 279 306Q338 284 380 256Q418 231 418 194Q418 169 409 153T385 127T349 113T308 109Q278 109 255 117T213 141T181 177T155 225L22 167Q45 113 75 79T146 22Q223 -21 304 -21Q430 -21 500
37Z" />
<glyph unicode="T" glyph-name="T" horiz-adv-x="556" d="M357 596H546V733H10V596H198V-11H357V596Z" />
<glyph unicode="U" glyph-name="U" horiz-adv-x="722" d="M574 54Q648 129 648 271V733H489V273Q489 187 460 152Q446 135 422 126T359 117Q288 117 261 153Q232 188 232 275V733H73V264Q73 126 148 53T361 -21Q500 -21 574 54Z" />
<glyph unicode="V" glyph-name="V" horiz-adv-x="556" d="M363 -11L561 733H401L275 232L155 733H-4L193 -11H363Z" />
<glyph unicode="W" glyph-name="W" horiz-adv-x="833" d="M671 -11L825 733H674L583 286L496 733H336L242 286L158 733H6L162 -11H320L416 463L513 -11H671Z" />
<glyph unicode="X" glyph-name="X" horiz-adv-x="556" d="M391 -11H566L365 370L554 733H379L278 524L177 733H2L191 370L-10 -11H165L278 220L391 -11Z" />
<glyph unicode="Y" glyph-name="Y" horiz-adv-x="556" d="M358 287L563 733H395L278 464L161 733H-7L199 284V-11H358V287Z" />
<glyph unicode="Z" glyph-name="Z" horiz-adv-x="556" d="M5 -11H541V127H199L537 608V733H28V595H332L5 121V-11Z" />
<glyph unicode="[" glyph-name="bracketleft" horiz-adv-x="333" d="M41 -95H297V-13H171V661H297V743H41V-95Z" />
<glyph unicode="\" glyph-name="backslash" horiz-adv-x="278" d="M189 -21H321L89 743H-43L189 -21Z" />
<glyph unicode="]" glyph-name="bracketright" horiz-adv-x="333" d="M36 -95H292V743H36V661H162V-13H36V-95Z" />
<glyph unicode="^" glyph-name="asciicircum" horiz-adv-x="600" d="M415 337H549L357 733H243L52 337H186L300 585L415 337Z" />
<glyph unicode="_" glyph-name="underscore" horiz-adv-x="500" d="M-11 -136H511V-64H-11V-136Z" />
<glyph unicode="`" glyph-name="grave" horiz-adv-x="278" d="M114 575H240L132 743H-55L114 575Z" />
<glyph unicode="a" glyph-name="a" horiz-adv-x="500" d="M320 -11H450V11Q450 11 453 13T455 22Q451 39 451 66V322Q451 434 403 487T240 541Q175 541 121 515T31 432L129 358Q150 390 174 408T240 427Q267 427 286 414T305 372V341Q280 339 261 335Q209 325
160 310T67 261Q7 211 7 128Q7 95 18 68T49 21T96 -10T157 -21Q202 -21 238 -10T313 26L320 -11ZM305 236V142Q285 126 257 110T201 93Q178 93 166 106T153 142Q153 168 169 184T209 211T259 226T305 236Z" />
<glyph unicode="b" glyph-name="b" horiz-adv-x="556" d="M479 63Q536 147 536 272Q536 386 475 463Q412 541 317 541Q286 541 254 529T199 497V733H53V-11H170L181 36Q213 8 243 -6T316 -21Q420 -21 479 63ZM361 379Q375 358 382 329T389 260Q389 234 385 206T370
155T338 117T285 101Q256 101 238 111T199 141V381Q216 396 237 407T282 419Q334 419 361 379Z" />
<glyph unicode="c" glyph-name="c" horiz-adv-x="500" d="M377 10Q402 26 425 53T473 124L360 188Q350 171 340 156T318 128T290 109T253 101Q203 101 182 139Q159 180 159 260Q159 341 182 381Q202 419 251 419Q272 419 286 413T312 395T331 369T346 337L469
385Q452 431 430 460T377 507Q318 541 250 541Q141 541 77 465T13 259Q13 202 27 152T70 63T144 2T252 -21Q328 -21 377 10Z" />
<glyph unicode="d" glyph-name="d" horiz-adv-x="556" d="M377 -11H504V733H357V497Q333 517 302 529T239 541Q145 541 82 463Q21 386 21 273Q21 140 78 61Q136 -21 240 -21Q279 -21 311 -7T372 33L377 -11ZM357 381V141Q337 123 319 112T273 101Q240 101 220
116T187 154T171 205T167 260Q167 286 171 314T187 365T219 404T273 419Q296 419 318 408T357 381Z" />
<glyph unicode="e" glyph-name="e" horiz-adv-x="500" d="M376 5Q404 18 428 40T477 99L369 167Q347 138 322 120T258 101Q228 101 210 112T182 141T167 182T159 229H473V299Q473 352 455 395T406 472Q344 541 249 541Q187 541 143 518T69 457T27 367T13 260Q13
205 26 155T68 65T140 3T245 -21Q323 -21 376 5ZM311 401Q333 376 336 335H160Q163 354 168 371T184 400T209 420T248 427Q288 427 311 401Z" />
<glyph unicode="f" glyph-name="f" horiz-adv-x="333" d="M219 409H324V531H219V578Q219 608 237 614T281 621H322V743H230Q145 743 109 706T72 584V531H1V409H73V-11H219V409Z" />
<glyph unicode="g" glyph-name="g" horiz-adv-x="500" d="M74 35Q39 24 20 -1T1 -65Q1 -110 27 -137T90 -178T170 -196T245 -201Q343 -201 417 -158Q496 -112 496 -43Q496 2 481 30T441 75T383 99T315 109T245 114T180 122Q164 125 159 130T154 143Q154 150 164
154T188 160T213 162T229 163Q274 163 314 172T383 203T429 259T446 344Q446 391 425 429Q439 435 461 435Q483 435 498 435V541Q460 541 425 535T362 499Q306 541 238 541Q196 541 157 529T88 492T40 432T22 352Q22 310 39 275T89 214Q62 198 40 175T18 116Q18
66 74 35ZM290 405Q311 384 311 351Q311 322 290 300T238 277Q206 277 182 297T158 351Q158 386 180 406T237 427Q268 427 290 405ZM319 -15Q343 -23 351 -32T360 -50Q360 -64 349 -73T321 -87T289 -94T263 -97Q225 -97 200 -94T161 -84Q137 -71 137 -49Q137 -29
158 -14Q172 -3 210 0Q246 -2 273 -6T319 -15Z" />
<glyph unicode="h" glyph-name="h" horiz-adv-x="556" d="M356 -11H502V354Q502 393 493 427T464 487T414 526T340 541Q302 541 266 526T199 487V733H53V-11H199V371Q220 393 246 406T304 419Q333 419 344 401Q349 390 352 373T356 331V-11Z" />
<glyph unicode="i" glyph-name="i" horiz-adv-x="278" d="M66 605H210V743H66V605ZM66 -11H212V531H66V-11Z" />
<glyph unicode="j" glyph-name="j" horiz-adv-x="278" d="M79 605H223V743H79V605ZM186 -164Q225 -126 225 -40V531H79V-25Q79 -33 78 -42T73 -58T63 -69T46 -73L-8 -69V-191Q12 -196 30 -198T70 -201Q108 -201 137 -192T186 -164Z" />
<glyph unicode="k" glyph-name="k" horiz-adv-x="500" d="M359 -11H516L347 325L510 531H340L199 347V733H53V-11H199V156L248 213L359 -11Z" />
<glyph unicode="l" glyph-name="l" horiz-adv-x="278" d="M66 -11H212V733H66V-11Z" />
<glyph unicode="m" glyph-name="m" horiz-adv-x="833" d="M633 -11H779V379Q779 411 771 440T745 491T701 527T640 541Q586 541 544 525T464 472Q442 507 407 524T331 541Q288 541 255 529T189 490V531H53V-11H199V369Q206 375 217 384T240 400T266 413T290 419Q318
419 330 404T343 362V-11H489V369Q496 375 507 384T531 400T556 413T579 419Q607 419 620 404T633 362V-11Z" />
<glyph unicode="n" glyph-name="n" horiz-adv-x="556" d="M356 -11H502V354Q502 393 493 427T464 487T414 526T340 541Q298 541 260 526T189 486V531H53V-11H199V371Q220 393 246 406T304 419Q333 419 344 401Q349 390 352 373T356 331V-11Z" />
<glyph unicode="o" glyph-name="o" horiz-adv-x="500" d="M424 57Q488 134 488 260Q488 386 424 463Q359 541 250 541Q141 541 77 463Q13 386 13 260Q13 134 77 57Q141 -21 250 -21Q359 -21 424 57ZM319 381Q342 340 342 260Q342 237 340 209T328 157T300 117T250
101Q219 101 201 117T174 158T162 209T159 260Q159 283 161 310T173 362T201 402T250 419Q298 419 319 381Z" />
<glyph unicode="p" glyph-name="p" horiz-adv-x="556" d="M474 57Q536 134 536 248Q536 379 478 459Q420 541 316 541Q281 541 251 529T194 496V531H53V-201H199V24Q223 3 254 -9T317 -21Q411 -21 474 57ZM361 379Q375 358 382 329T389 260Q389 234 385 206T369
155T337 116T283 101Q259 101 238 112T199 139V379Q219 398 237 408T285 419Q336 419 361 379Z" />
<glyph unicode="q" glyph-name="q" horiz-adv-x="556" d="M358 -201H504V531H386L375 485Q345 511 314 526T241 541Q180 541 138 515T70 446T33 352T21 248Q21 134 82 57Q145 -21 239 -21Q269 -21 302 -9T358 23V-201ZM357 379V140Q341 125 320 113T276 101Q242
101 221 115T188 153T172 204T167 260Q167 286 171 314T187 365T219 404T273 419Q301 419 319 408T357 379Z" />
<glyph unicode="r" glyph-name="r" horiz-adv-x="333" d="M299 389L329 387V541Q281 541 245 525T181 469V531H45V-11H191V316Q201 338 232 363Q266 390 299 389Z" />
<glyph unicode="s" glyph-name="s" horiz-adv-x="444" d="M365 22Q422 67 422 138Q422 207 385 253Q366 275 342 289T291 312T237 331T185 354Q161 368 161 387Q161 412 180 419T220 427Q249 427 273 408T316 367L411 450Q368 498 322 519T212 541Q176 541 143
531T84 500T44 449T29 380Q29 302 78 265Q126 230 183 209Q214 197 235 188T269 172Q289 161 289 140Q289 127 283 118T268 104T247 96T224 93Q205 93 188 100T157 118T130 144T108 173L7 97Q33 61 57 39T110 3Q164 -21 222 -21Q310 -21 365 22Z" />
<glyph unicode="t" glyph-name="t" horiz-adv-x="333" d="M269 -19Q280 -18 292 -17T321 -11V114L285 105Q269 101 252 101Q237 101 228 105T219 126V409H321V531H219V703H73V531H1V409H73V108Q73 42 110 11T210 -21Q228 -21 243 -21T269 -19Z" />
<glyph unicode="u" glyph-name="u" horiz-adv-x="556" d="M367 -11H502V531H356V148Q337 128 310 115T254 101Q222 101 212 118Q199 136 199 181V531H53V162Q53 123 62 90T92 32T143 -7T216 -21Q260 -21 296 -5T367 35V-11Z" />
<glyph unicode="v" glyph-name="v" horiz-adv-x="444" d="M293 -11L449 531H301L221 210L143 531H-4L147 -11H293Z" />
<glyph unicode="w" glyph-name="w" horiz-adv-x="667" d="M532 -11L670 531H530L464 242L400 531H267L200 241L137 531H-4L135 -11H265L333 281L402 -11H532Z" />
<glyph unicode="x" glyph-name="x" horiz-adv-x="444" d="M301 -11H459L295 270L447 531H287L220 400L154 531H-9L144 270L-15 -11H144L221 138L301 -11Z" />
<glyph unicode="y" glyph-name="y" horiz-adv-x="444" d="M277 -15L451 531H303L221 238L142 531H-6L152 26L153 8Q144 -26 128 -52Q120 -64 105 -71T64 -77L-1 -72V-196L70 -201Q113 -204 146 -189T205 -148T248 -86T277 -15Z" />
<glyph unicode="z" glyph-name="z" horiz-adv-x="444" d="M7 -11H438V111H196L435 427V531H27L26 409H247L7 92V-11Z" />
<glyph unicode="{" glyph-name="braceleft" horiz-adv-x="333" d="M212 -95H289V-13H227Q210 -13 204 0T197 28V214Q197 248 186 277T143 324Q175 341 186 370T197 434V620Q197 634 203 647T227 661H289V743H212Q174 743 145 734T99 704Q67 666 67 615V416Q67
395 51 380Q43 372 31 369T-4 365V283Q19 283 31 280T51 268Q67 253 67 232V33Q67 -18 99 -56Q116 -76 145 -85T212 -95Z" />
<glyph unicode="|" glyph-name="bar" horiz-adv-x="222" d="M46 -21H176V743H46V-21Z" />
<glyph unicode="}" glyph-name="braceright" horiz-adv-x="333" d="M282 268Q290 276 301 279T335 283V365Q313 365 302 368T282 380Q266 395 266 416V615Q266 666 234 704Q202 743 123 743H46V661H107Q124 661 130 648T136 620V434Q136 401 146 371T188 324Q157
307 147 277T136 214V28Q136 14 130 1T107 -13H46V-95H123Q202 -95 234 -56Q266 -18 266 33V232Q266 253 282 268Z" />
<glyph unicode="~" glyph-name="asciitilde" horiz-adv-x="600" d="M488 192Q520 218 542 259L497 375Q475 340 464 324T444 302Q428 289 408 289Q383 289 359 299T309 323T255 346T196 357Q146 357 113 330T57 261L103 144Q123 180 134 196T154 218Q170 231 191
231Q216 231 240 221T290 197T344 174T404 163Q453 163 488 192Z" />
</font>
</defs>
</svg>
